<svg width="273" height="221" viewBox="0 0 273 221" fill="none" xmlns="http://www.w3.org/2000/svg">
    <path d="M139.363 211.844C138.486 214.65 134.514 214.65 133.637 211.844L120.831 170.895C120.227 168.964 121.67 167 123.694 167H149.306C151.33 167 152.773 168.964 152.169 170.895L139.363 211.844Z" fill="#E02B4C"/>
    <path d="M114.655 202.202C112.416 204.237 108.914 202.054 109.755 199.148L120.06 163.552C120.613 161.641 122.84 160.788 124.528 161.841L141.644 172.51C143.333 173.563 143.548 175.937 142.075 177.276L114.655 202.202Z" fill="#E02B4C"/>
    <path d="M158.961 202.663C161.2 204.698 164.702 202.515 163.86 199.609L153.556 164.013C153.002 162.102 150.776 161.249 149.087 162.302L131.971 172.971C130.282 174.023 130.067 176.398 131.54 177.737L158.961 202.663Z" fill="#E02B4C"/>
    <path d="M228.772 61.6417C232.974 59.703 237.328 64.0214 235.424 68.2391L211.289 121.697C209.854 124.876 205.688 125.646 203.211 123.19L174.087 94.3044C171.611 91.8483 172.347 87.6755 175.514 86.2143L228.772 61.6417Z" fill="#F8859A"/>
    <path d="M236.522 81.6269C241.353 80.986 244.153 86.9309 240.582 90.2474L201.486 126.553C199.006 128.856 195.002 128.081 193.56 125.019L179.766 95.7293C178.324 92.6674 180.277 89.0874 183.632 88.6423L236.522 81.6269Z" fill="#F8859A"/>
    <path d="M232.229 103.532C237.241 104.066 238.405 110.84 233.858 113.015L190.744 133.637C187.751 135.068 184.22 133.242 183.658 129.972L179.249 104.296C178.687 101.026 181.407 98.1264 184.705 98.4773L232.229 103.532Z" fill="#F8859A"/>
    <path d="M221.924 121.065C226.263 123.63 224.51 130.277 219.47 130.369L183.945 131.015C180.629 131.076 178.174 127.949 179.02 124.741L183.959 106.012C184.805 102.805 188.482 101.295 191.338 102.983L221.924 121.065Z" fill="#F8859A"/>
    <path d="M44.0782 60.6417C39.8762 58.703 35.5222 63.0214 37.4263 67.2391L61.5606 120.697C62.9957 123.876 67.1624 124.646 69.6387 122.19L98.7627 93.3044C101.239 90.8483 100.503 86.6755 97.3365 85.2143L44.0782 60.6417Z" fill="#F8859A"/>
    <path d="M36.3283 80.6269C31.4969 79.986 28.6971 85.9309 32.2685 89.2474L71.3642 125.553C73.8443 127.856 77.848 127.081 79.29 124.019L93.0841 94.7293C94.5261 91.6674 92.5732 88.0874 89.2181 87.6423L36.3283 80.6269Z" fill="#F8859A"/>
    <path d="M40.6214 102.532C35.6093 103.066 34.4458 109.84 38.9928 112.015L82.1067 132.637C85.0992 134.068 88.6305 132.242 89.192 128.972L93.6018 103.296C94.1632 100.026 91.4437 97.1264 88.145 97.4773L40.6214 102.532Z" fill="#F8859A"/>
    <path d="M50.9259 120.065C46.587 122.63 48.3399 129.277 53.3794 129.369L88.9046 130.015C92.2213 130.076 94.6762 126.949 93.8303 123.741L88.891 105.012C88.0451 101.805 84.3674 100.295 81.5118 101.983L50.9259 120.065Z" fill="#F8859A"/>
    <path d="M83.6324 24.815C82.8786 18.6826 89.8597 14.6521 94.7936 18.3711L103.064 24.605C107.068 27.6234 106.693 33.7498 102.35 36.2571L95.3436 40.3025C91.0009 42.8098 85.5077 40.0714 84.8959 35.0943L83.6324 24.815Z" fill="#F8859A"/>
    <path d="M187.577 25.815C188.331 19.6826 181.35 15.6521 176.416 19.3711L168.145 25.605C164.141 28.6234 164.516 34.7498 168.859 37.2571L175.866 41.3025C180.208 43.8098 185.702 41.0714 186.313 36.0943L187.577 25.815Z" fill="#F8859A"/>
    <ellipse cx="135.179" cy="60.6078" rx="59.9643" ry="42.7143" fill="#F8859A"/>
    <ellipse cx="136.411" cy="122.215" rx="60.375" ry="57.5" fill="#F8859A"/>
    <ellipse cx="136.821" cy="122.214" rx="43.5357" ry="41.8929" fill="#FFC7D1"/>
    <circle cx="114.323" cy="59.0537" r="27.9512" fill="#E02B4C"/>
    <circle cx="156.942" cy="59.0537" r="27.9512" fill="#E02B4C"/>
    <path d="M125.67 84.4539L135.633 77.0416V100.288L125.67 84.4539Z" fill="#A21B33"/>
    <path d="M145.596 84.4539L135.633 77.0416V100.288L145.596 84.4539Z" fill="#C52945"/>
    <circle cx="113.77" cy="59.0536" r="18.5419" fill="white"/>
    <circle cx="158.049" cy="58.4999" r="18.5419" fill="white"/>
    <circle cx="158.049" cy="58.5005" r="14.6675" fill="#A11B33"/>
    <circle cx="113.77" cy="59.0532" r="14.6675" fill="#A11B33"/>
    <circle cx="163.861" cy="55.456" r="4.9814" fill="white"/>
    <circle cx="117.921" cy="55.456" r="4.9814" fill="white"/>
</svg>
