<svg width="58" height="55" viewBox="0 0 58 55" fill="none" xmlns="http://www.w3.org/2000/svg">
    <ellipse cx="29" cy="27.5" rx="29" ry="27.5" fill="#FFACBB"/>
    <ellipse cx="29" cy="26.9813" rx="21.4815" ry="20.7547" fill="#E02B4C"/>
    <g clip-path="url(#clip0_590_2803)">
        <path d="M28.8977 40.2243C29.2448 40.2243 29.5777 40.0979 29.8392 39.8646C30.8235 38.9849 31.7697 38.1587 32.6066 37.4297L32.6114 37.4248C35.065 35.2912 37.181 33.4443 38.655 31.6266C40.305 29.595 41.0706 27.6703 41.0706 25.5658C41.0706 23.5197 40.3858 21.6339 39.14 20.2536C37.8799 18.8539 36.1491 18.0859 34.2709 18.0859C32.8634 18.0859 31.5795 18.5379 30.4479 19.4371C29.8772 19.8891 29.359 20.4432 28.9025 21.0896C28.446 20.4432 27.9277 19.8891 27.3571 19.4371C26.2159 18.5379 24.932 18.0859 23.5245 18.0859C21.6463 18.0859 19.9155 18.8539 18.6554 20.2536C17.4096 21.6339 16.7249 23.5197 16.7249 25.5658C16.7249 27.6703 17.4904 29.595 19.1404 31.6266C20.6145 33.4443 22.7305 35.2912 25.184 37.4248C26.0209 38.1538 26.9719 38.9801 27.9562 39.8646C28.2177 40.0979 28.5506 40.2243 28.8977 40.2243ZM34.2709 19.544C35.7449 19.544 37.1049 20.1467 38.0892 21.2402C39.0925 22.3532 39.6441 23.8891 39.6441 25.5658C39.6441 27.335 39.0021 28.9194 37.5566 30.6982C36.1634 32.4188 34.0854 34.2268 31.6842 36.3167L31.6794 36.3215C30.8378 37.0554 29.8868 37.8817 28.8977 38.7662C27.8992 37.8768 26.9482 37.0506 26.1065 36.3167C23.7052 34.2219 21.6321 32.4188 20.2341 30.6982C18.7933 28.9194 18.1466 27.335 18.1466 25.5658C18.1466 23.8891 18.6982 22.3532 19.7015 21.2402C20.6906 20.1467 22.0505 19.544 23.5245 19.544C24.6087 19.544 25.6025 19.8939 26.4774 20.589C27.2572 21.2062 27.8041 21.9887 28.1226 22.5331C28.2891 22.8149 28.5744 22.9802 28.8977 22.9802C29.2211 22.9802 29.5064 22.8101 29.6728 22.5331C29.9914 21.9887 30.5382 21.2062 31.318 20.589C32.1929 19.8939 33.1867 19.544 34.2709 19.544Z" fill="white"/>
    </g>
    <defs>
        <clipPath id="clip0_590_2803">
            <rect width="24.3457" height="22.1384" fill="white" transform="matrix(-1 0 0 1 41.0706 18.0859)"/>
        </clipPath>
    </defs>
</svg>
