<svg width="31" height="32" viewBox="0 0 31 32" fill="none" xmlns="http://www.w3.org/2000/svg">
    <ellipse cx="15.5" cy="15.893" rx="15.5" ry="15.893" fill="#FFACBB"/>
    <ellipse cx="15.5" cy="15.893" rx="15.5" ry="15.893" fill="#FFACBB"/>
    <ellipse cx="15.5001" cy="15.8929" rx="12.3426" ry="12.6556" fill="#FFACBB"/>
    <ellipse cx="15.5001" cy="15.8929" rx="12.3426" ry="12.6556" fill="#E02B4C"/>
    <path d="M13.8429 11.6549C14.3862 9.94039 16.8123 9.94039 17.3556 11.6549C17.5982 12.4205 18.3124 12.9407 19.1156 12.9407C20.9139 12.9407 21.6889 15.2326 20.2468 16.3069L20.1726 16.3622C19.5308 16.8403 19.2625 17.6726 19.5043 18.4355L19.5435 18.5592C20.0821 20.259 18.1261 21.6516 16.6962 20.5864C16.0453 20.1015 15.1532 20.1015 14.5023 20.5864C13.0724 21.6516 11.1164 20.259 11.655 18.5592L11.6942 18.4355C11.936 17.6726 11.6677 16.8403 11.0259 16.3622L10.9517 16.3069C9.50958 15.2326 10.2846 12.9407 12.0829 12.9407C12.886 12.9407 13.6003 12.4205 13.8429 11.6549Z" fill="#FFACBB"/>
</svg>
