<svg width="108" height="108" viewBox="0 0 108 108" fill="none" xmlns="http://www.w3.org/2000/svg">
    <circle cx="54" cy="54" r="54" fill="#FFD075"/>
    <circle cx="54" cy="54" r="54" fill="#FFD075"/>
    <circle cx="54" cy="54" r="43" fill="#FFD075"/>
    <circle cx="54" cy="54" r="43" fill="#FFE9BE"/>
    <path d="M52.4441 26.6236C53.0428 24.781 55.6496 24.781 56.2483 26.6236L61.4357 42.5887C61.7034 43.4127 62.4713 43.9706 63.3378 43.9706H80.1244C82.0618 43.9706 82.8674 46.4498 81.3 47.5886L67.7193 57.4556C67.0183 57.9649 66.725 58.8676 66.9928 59.6916L72.1801 75.6567C72.7788 77.4993 70.6699 79.0315 69.1024 77.8927L55.5218 68.0258C54.8208 67.5165 53.8716 67.5165 53.1706 68.0258L39.59 77.8927C38.0226 79.0315 35.9136 77.4993 36.5123 75.6567L41.6996 59.6916C41.9674 58.8676 41.6741 57.9649 40.9731 57.4556L27.3925 47.5886C25.825 46.4498 26.6306 43.9706 28.568 43.9706H45.3546C46.2211 43.9706 46.989 43.4127 47.2567 42.5886L52.4441 26.6236Z" fill="#FFCC81"/>
</svg>
