<svg width="111" height="114" viewBox="0 0 111 114" fill="none" xmlns="http://www.w3.org/2000/svg">
    <ellipse cx="55.0385" cy="56.9302" rx="55.0385" ry="56.4341" fill="#FFACBB"/>
    <ellipse cx="55.0385" cy="56.9302" rx="55.0385" ry="56.4341" fill="#FFACBB"/>
    <ellipse cx="55.0385" cy="56.9305" rx="43.8269" ry="44.9383" fill="#FFACBB"/>
    <ellipse cx="55.0385" cy="56.9305" rx="43.8269" ry="44.9383" fill="#E02B4C"/>
    <path d="M53.4847 28.2178C54.0745 26.3566 56.7081 26.3566 57.2978 28.2178L62.6324 45.0522C62.8958 45.8833 63.6672 46.4481 64.539 46.4481H81.9065C83.8318 46.4481 84.6453 48.9017 83.1013 50.0519L68.9652 60.5828C68.2818 61.092 67.996 61.9784 68.2535 62.7908L73.6325 79.7656C74.2192 81.6171 72.0887 83.134 70.5312 81.9737L56.5861 71.5851C55.8771 71.0569 54.9054 71.0569 54.1964 71.5851L40.2514 81.9737C38.6939 83.1339 36.5633 81.6171 37.15 79.7656L42.529 62.7908C42.7865 61.9784 42.5008 61.092 41.8173 60.5828L27.6812 50.0519C26.1373 48.9017 26.9508 46.4481 28.8761 46.4481H46.2436C47.1154 46.4481 47.8868 45.8833 48.1501 45.0522L53.4847 28.2178Z" fill="#FFACBB"/>
</svg>
