<svg width="178" height="175" viewBox="0 0 178 175" fill="none" xmlns="http://www.w3.org/2000/svg">
    <path d="M175.839 85.0247L160.883 76.3307C159.546 75.5404 159.242 73.7773 160.215 72.6221L171.219 59.3685C172.435 57.9093 171.644 55.6599 169.76 55.3559L152.797 52.2552C151.277 51.9513 150.366 50.4313 150.913 48.9722L156.749 32.7395C157.418 30.9764 155.837 29.1525 154.013 29.4565L136.99 32.3747C135.47 32.6179 134.072 31.4627 134.072 29.9428L134.011 12.6766C134.011 10.7919 131.944 9.57592 130.303 10.5487L115.286 19.0602C113.948 19.7898 112.246 19.1818 111.699 17.7835L105.741 1.61155C105.072 -0.151552 102.762 -0.57713 101.546 0.881992L90.3591 14.0141C89.3864 15.1692 87.5625 15.1692 86.5897 14.0141L75.4031 0.881992C74.1872 -0.57713 71.8161 -0.151552 71.2082 1.61155L65.2501 17.7835C64.7029 19.2426 63.0006 19.8506 61.6631 19.0602L46.7071 10.4879C45.0656 9.57592 42.9985 10.7311 42.9985 12.6158L42.9377 29.882C42.9377 31.402 41.5394 32.5571 40.0195 32.3139L22.9964 29.3957C21.1117 29.0917 19.5917 30.9156 20.2605 32.6787L26.097 48.9114C26.6442 50.3705 25.7322 51.8905 24.2123 52.1944L7.25001 55.2951C5.36531 55.6599 4.57495 57.8485 5.79089 59.3077L16.7951 72.5613C17.7678 73.7165 17.4639 75.5404 16.1263 76.2699L1.23113 84.9639C-0.410378 85.9366 -0.410378 88.3077 1.23113 89.2197L16.0655 98.0352C17.4031 98.8255 17.707 100.589 16.7343 101.744L5.73009 115.058C4.51416 116.517 5.30451 118.767 7.18921 119.071L24.1515 122.171C25.6714 122.475 26.5834 123.995 26.0362 125.455L20.1997 141.687C19.531 143.45 21.1117 145.274 22.9356 144.97L39.9587 142.052C41.4786 141.809 42.8769 142.964 42.8769 144.484L42.9377 161.75C42.9377 163.635 45.0048 164.851 46.6463 163.878L61.6631 155.306C63.0006 154.576 64.7029 155.184 65.2501 156.582L71.2082 172.754C71.8769 174.517 74.1872 174.943 75.4031 173.484L86.5897 160.352C87.5625 159.197 89.3864 159.197 90.3591 160.352L101.546 173.484C102.762 174.943 105.133 174.517 105.741 172.754L111.699 156.582C112.246 155.123 113.948 154.515 115.286 155.306L130.303 163.878C131.944 164.79 134.011 163.635 134.011 161.75L134.072 144.484C134.072 142.964 135.47 141.809 136.99 142.052L154.013 144.97C155.898 145.274 157.418 143.45 156.749 141.687L150.913 125.455C150.366 123.995 151.277 122.475 152.797 122.171L169.76 119.071C171.644 118.706 172.435 116.517 171.219 115.058L160.275 101.744C159.303 100.589 159.607 98.7647 160.944 98.0352L175.839 89.3412C177.42 88.3685 177.42 85.9974 175.839 85.0247ZM88.4744 151.597C52.9084 151.597 24.0907 122.779 24.0907 87.2134C24.0907 51.6473 52.9084 22.8296 88.4744 22.8296C124.041 22.8296 152.858 51.6473 152.858 87.2134C152.858 122.719 124.041 151.597 88.4744 151.597Z" fill="#FFB59D"/>
    <path d="M88.4745 143.146C119.365 143.146 144.407 118.104 144.407 87.2133C144.407 56.3223 119.365 31.2803 88.4745 31.2803C57.5836 31.2803 32.5415 56.3223 32.5415 87.2133C32.5415 118.104 57.5836 143.146 88.4745 143.146Z" fill="#FFE2AB"/>
</svg>
